@startuml
'https://plantuml.com/class-diagram

class DriverManager {
}

interface Driver {
Connection connect()
}

interface Connection {
Statement createStatement()
PreparedStatement prepareStatement(String sql)
CallableStatement prepareCall(String sql)
String nativeSQL(String sql)
void setAutoCommit(boolean autoCommit)
boolean getAutoCommit()
void commit()
void rollback()
}

interface Statement extends Wrapper, AutoCloseable {
    ResultSet executeQuery(String sql)
    int executeUpdate(String sql)
    void setCursorName(String name)
    boolean execute(String sql)
    ResultSet getResultSet()
    int getUpdateCount()
}

interface PreparedStatement extends Statement {
}

interface CallableStatement extends PreparedStatement {
}

interface ResultSet extends Wrapper, AutoCloseable {
}
Driver -- Connection

DriverManager *-- Driver

Connection -- Statement

@enduml